Coordinates
version=1
nRows=12
nColumns=34
inDegrees=yes

Units are S.I. units (second, meters, Newtons, ...)
Angles are in degrees.

endheader
time	pelvis_tilt	pelvis_list	pelvis_rotation	pelvis_tx	pelvis_ty	pelvis_tz	hip_flexion_r	hip_adduction_r	hip_rotation_r	knee_angle_r	ankle_angle_r	subtalar_angle_r	mtp_angle_r	hip_flexion_l	hip_adduction_l	hip_rotation_l	knee_angle_l	socket_flexion	socket_adduction	socket_rotation	socket_tx	socket_ty	socket_tz	pros_ankle_rx	pros_ankle_ry	pros_ankle_rz	pros_ankle_tx	pros_ankle_ty	pros_ankle_tz	foot_flex	lumbar_extension	lumbar_bending	lumbar_rotation
      0.59583333	     -1.84268375	     -4.52559296	     14.45741040	      0.01191033	      1.02037557	      0.35930554	     22.59154498	      0.11608578	    -15.97180833	      2.06787887	     11.66906820	      4.66341822	      7.96950527	     -8.90028477	     -8.47693367	      5.67481982	    -17.64029646	      0.77647600	      0.16162423	      5.87076220	      0.00000000	     -0.01349374	      0.00000000	      0.00000000	      0.00000000	      0.00000000	      0.00000000	      0.00000000	      0.00000000	     14.64714883	    -10.74961620	     -0.93195847	    -34.28340659
      0.60000000	     -1.82027163	     -4.56321259	     14.66417601	      0.01809659	      1.01934115	      0.35934245	     22.61848112	      0.12171729	    -15.78868504	      1.87577104	     11.48488911	      4.71490618	      7.99723363	     -9.08990962	     -8.65809699	      5.76200393	    -17.84018716	      0.87545398	      0.13237207	      5.95356501	      0.00000000	     -0.01337652	      0.00000000	      0.00000000	      0.00000000	      0.00000000	      0.00000000	      0.00000000	      0.00000000	     14.70103796	    -10.67326956	     -0.86361474	    -34.31741136
      0.60416667	     -1.78841226	     -4.69731827	     14.83678715	      0.02408870	      1.01822497	      0.35948883	     22.79603124	      0.21004143	    -15.73027901	      1.46878057	     10.81727418	      4.69384685	      8.15590698	     -9.18109600	     -8.98238517	      5.73661090	    -18.17797439	      0.98882056	      0.26046161	      6.12035182	      0.00000000	     -0.01340348	      0.00000000	      0.00000000	      0.00000000	      0.00000000	      0.00000000	      0.00000000	      0.00000000	     14.89440255	    -10.77439215	     -0.51074384	    -34.48276862
      0.60833333	     -1.74074411	     -4.75835574	     15.04745754	      0.03032990	      1.01728288	      0.35956044	     22.78876285	      0.25357573	    -15.53905507	      1.19685268	     10.58586307	      4.73711954	      8.19309634	     -9.35072117	     -9.19021163	      5.81634618	    -18.42313590	      1.12840659	      0.22160110	      6.18607904	      0.00000000	     -0.01335371	      0.00000000	      0.00000000	      0.00000000	      0.00000000	      0.00000000	      0.00000000	      0.00000000	     14.91810810	    -10.67874487	     -0.43859068	    -34.51102330
      0.61250000	     -1.81276259	     -4.99037311	     15.26331056	      0.03639677	      1.01599605	      0.35960885	     23.14431011	      0.35837463	    -15.64386625	      0.66313932	      9.24255186	      4.30186631	     11.96814855	     -9.22097797	     -9.60687747	      5.89291133	    -18.79791364	      1.40023118	      0.44660751	      6.34609710	      0.00000000	     -0.01344586	      0.00000000	      0.00000000	      0.00000000	      0.00000000	      0.00000000	      0.00000000	      0.00000000	     15.17828566	    -10.60054002	      0.03217366	    -34.78263346
      0.61666667	     -1.71286968	     -5.10914434	     15.37881720	      0.04253952	      1.01517694	      0.35980107	     23.23200415	      0.47072079	    -15.51132307	      0.10586246	      8.65505652	      4.35965159	     11.96482665	     -9.37217254	     -9.87565217	      5.85637300	    -19.15829621	      1.57098611	      0.45520609	      6.41674412	      0.00000000	     -0.01330096	      0.00000000	      0.00000000	      0.00000000	      0.00000000	      0.00000000	      0.00000000	      0.00000000	     15.29331244	    -10.67039050	      0.31459615	    -34.80003941
      0.62083333	     -1.60397523	     -5.26523330	     15.49783914	      0.04868814	      1.01437302	      0.36000413	     23.34951337	      0.61491233	    -15.43549613	     -0.54259395	      8.00943313	      4.34978738	     11.98640955	     -9.49122717	    -10.18671222	      5.81078698	    -19.56081436	      1.77123561	      0.46516592	      6.50344491	      0.00000000	     -0.01324508	      0.00000000	      0.00000000	      0.00000000	      0.00000000	      0.00000000	      0.00000000	      0.00000000	     15.39565983	    -10.74289763	      0.63251658	    -34.80618376
      0.62500000	     -1.50286773	     -5.45015846	     15.60479140	      0.05487647	      1.01360582	      0.36022623	     23.49297262	      0.78545375	    -15.39980316	     -1.24547612	      7.34486726	      4.29715422	     12.03957999	     -9.56566236	    -10.52171742	      5.74436901	    -19.99853031	      2.00243265	      0.48125438	      6.58175979	      0.00000000	     -0.01318452	      0.00000000	      0.00000000	      0.00000000	      0.00000000	      0.00000000	      0.00000000	      0.00000000	     15.47293112	    -10.82551358	      0.97036960	    -34.79416409
      0.62916667	     -1.38311574	     -5.66128940	     15.69045343	      0.06101117	      1.01291945	      0.36050172	     23.66042637	      0.98700359	    -15.38054472	     -2.03624998	      6.64150263	      4.21555221	     12.12326785	     -9.61743822	    -10.87785263	      5.67460033	    -20.48671603	      2.26400549	      0.49244617	      6.65246867	      0.00000000	     -0.01308844	      0.00000000	      0.00000000	      0.00000000	      0.00000000	      0.00000000	      0.00000000	      0.00000000	     15.55141652	    -10.90621492	      1.35033114	    -34.76215228
      0.63333333	     -1.29117652	     -5.90679145	     15.76423291	      0.06720886	      1.01221637	      0.36081884	     23.89819710	      1.20927003	    -15.43567977	     -2.92193215	      5.95711981	      4.06642414	     12.30093399	     -9.60593203	    -11.26909719	      5.57073144	    -20.99989027	      2.56115274	      0.52042102	      6.74351035	      0.00000000	     -0.01308225	      0.00000000	      0.00000000	      0.00000000	      0.00000000	      0.00000000	      0.00000000	      0.00000000	     15.58657117	    -10.99328544	      1.74709240	    -34.67025462
      0.63750000	     -1.54611270	     -6.10951092	     15.71717537	      0.07329234	      1.01098791	      0.36131644	     24.83436084	      1.20786252	    -15.59007852	     -4.46318279	      5.42201415	      4.17209029	     14.44696893	     -9.16193483	    -11.47543800	      5.53609948	    -21.60378593	      3.00505084	      0.59154582	      6.75511420	      0.00000000	     -0.01293953	      0.00000000	      0.00000000	      0.00000000	      0.00000000	      0.00000000	      0.00000000	      0.00000000	     15.70294553	    -10.54865268	      1.97838877	    -34.39505177
      0.64166667	     -1.36331337	     -6.33990364	     15.74738468	      0.07943823	      1.01061753	      0.36162446	     24.89522994	      1.47124597	    -15.56534230	     -5.24170969	      4.77967056	      4.15150846	     14.45875114	     -9.19555752	    -11.80485758	      5.46745791	    -22.19889668	      3.36034482	      0.53437385	      6.66590855	      0.00000000	     -0.01273638	      0.00000000	      0.00000000	      0.00000000	      0.00000000	      0.00000000	      0.00000000	      0.00000000	     15.72886094	    -10.75233872	      2.39875751	    -34.40902244
